<mxfile host="app.diagrams.net" modified="2022-11-08T02:32:21.694Z" agent="5.0 (Windows NT 10.0; Win64; x64) AppleWebKit/537.36 (KHTML, like Gecko) Chrome/107.0.0.0 Safari/537.36 Edg/107.0.1418.26" etag="TK1BXQnAUBJPvsSz9Gr9" version="20.5.1" type="github">
  <diagram id="L9zq7nHex_g6uug1E_T-" name="第 1 页">
    <mxGraphModel dx="1504" dy="867" grid="0" gridSize="10" guides="1" tooltips="1" connect="1" arrows="1" fold="1" page="1" pageScale="1" pageWidth="827" pageHeight="1169" math="0" shadow="0">
      <root>
        <mxCell id="0" />
        <mxCell id="1" parent="0" />
        <mxCell id="LCCQY9lC6MaHUOdPVj7X-5" style="edgeStyle=orthogonalEdgeStyle;rounded=0;orthogonalLoop=1;jettySize=auto;html=1;exitX=0;exitY=0.5;exitDx=0;exitDy=0;entryX=0.5;entryY=1;entryDx=0;entryDy=0;fontSize=16;" edge="1" parent="1" source="LCCQY9lC6MaHUOdPVj7X-1" target="LCCQY9lC6MaHUOdPVj7X-3">
          <mxGeometry relative="1" as="geometry" />
        </mxCell>
        <mxCell id="LCCQY9lC6MaHUOdPVj7X-6" style="edgeStyle=orthogonalEdgeStyle;rounded=0;orthogonalLoop=1;jettySize=auto;html=1;exitX=1;exitY=0.5;exitDx=0;exitDy=0;fontSize=16;" edge="1" parent="1" source="LCCQY9lC6MaHUOdPVj7X-1" target="LCCQY9lC6MaHUOdPVj7X-4">
          <mxGeometry relative="1" as="geometry" />
        </mxCell>
        <mxCell id="LCCQY9lC6MaHUOdPVj7X-7" style="edgeStyle=orthogonalEdgeStyle;rounded=0;orthogonalLoop=1;jettySize=auto;html=1;entryX=0.5;entryY=1;entryDx=0;entryDy=0;fontSize=16;" edge="1" parent="1" source="LCCQY9lC6MaHUOdPVj7X-1" target="LCCQY9lC6MaHUOdPVj7X-2">
          <mxGeometry relative="1" as="geometry" />
        </mxCell>
        <mxCell id="LCCQY9lC6MaHUOdPVj7X-9" style="edgeStyle=orthogonalEdgeStyle;rounded=0;orthogonalLoop=1;jettySize=auto;html=1;exitX=0.5;exitY=1;exitDx=0;exitDy=0;entryX=0.5;entryY=0;entryDx=0;entryDy=0;fontSize=16;" edge="1" parent="1" source="LCCQY9lC6MaHUOdPVj7X-1">
          <mxGeometry relative="1" as="geometry">
            <mxPoint x="414" y="391" as="targetPoint" />
          </mxGeometry>
        </mxCell>
        <mxCell id="LCCQY9lC6MaHUOdPVj7X-1" value="&lt;font style=&quot;font-size: 16px;&quot;&gt;低效户（2年峰值资产大于0）&lt;/font&gt;" style="rounded=0;whiteSpace=wrap;html=1;" vertex="1" parent="1">
          <mxGeometry x="291" y="306" width="246" height="39" as="geometry" />
        </mxCell>
        <mxCell id="LCCQY9lC6MaHUOdPVj7X-2" value="空白组10%" style="rounded=0;whiteSpace=wrap;html=1;fontSize=16;" vertex="1" parent="1">
          <mxGeometry x="354" y="204" width="120" height="38" as="geometry" />
        </mxCell>
        <mxCell id="LCCQY9lC6MaHUOdPVj7X-3" value="业务组45%" style="rounded=0;whiteSpace=wrap;html=1;fontSize=16;" vertex="1" parent="1">
          <mxGeometry x="142" y="204" width="120" height="38" as="geometry" />
        </mxCell>
        <mxCell id="LCCQY9lC6MaHUOdPVj7X-4" value="算法组45%" style="rounded=0;whiteSpace=wrap;html=1;fontSize=16;" vertex="1" parent="1">
          <mxGeometry x="566" y="204" width="120" height="38" as="geometry" />
        </mxCell>
        <mxCell id="LCCQY9lC6MaHUOdPVj7X-13" value="" style="edgeStyle=orthogonalEdgeStyle;rounded=0;orthogonalLoop=1;jettySize=auto;html=1;fontSize=16;" edge="1" parent="1" source="LCCQY9lC6MaHUOdPVj7X-11" target="LCCQY9lC6MaHUOdPVj7X-12">
          <mxGeometry relative="1" as="geometry" />
        </mxCell>
        <mxCell id="LCCQY9lC6MaHUOdPVj7X-11" value="&lt;font style=&quot;font-size: 16px;&quot;&gt;客户号，峰值资产&lt;/font&gt;" style="rounded=0;whiteSpace=wrap;html=1;" vertex="1" parent="1">
          <mxGeometry x="291" y="395" width="246" height="39" as="geometry" />
        </mxCell>
        <mxCell id="LCCQY9lC6MaHUOdPVj7X-17" style="edgeStyle=orthogonalEdgeStyle;rounded=0;orthogonalLoop=1;jettySize=auto;html=1;fontSize=16;" edge="1" parent="1" source="LCCQY9lC6MaHUOdPVj7X-12" target="LCCQY9lC6MaHUOdPVj7X-16">
          <mxGeometry relative="1" as="geometry" />
        </mxCell>
        <mxCell id="LCCQY9lC6MaHUOdPVj7X-18" style="edgeStyle=orthogonalEdgeStyle;rounded=0;orthogonalLoop=1;jettySize=auto;html=1;exitX=1;exitY=0.5;exitDx=0;exitDy=0;fontSize=16;" edge="1" parent="1" source="LCCQY9lC6MaHUOdPVj7X-12" target="LCCQY9lC6MaHUOdPVj7X-14">
          <mxGeometry relative="1" as="geometry" />
        </mxCell>
        <mxCell id="LCCQY9lC6MaHUOdPVj7X-12" value="&lt;font style=&quot;font-size: 16px;&quot;&gt;按峰值资产排序&lt;/font&gt;" style="whiteSpace=wrap;html=1;rounded=0;" vertex="1" parent="1">
          <mxGeometry x="314" y="476" width="200" height="40" as="geometry" />
        </mxCell>
        <mxCell id="LCCQY9lC6MaHUOdPVj7X-24" style="edgeStyle=orthogonalEdgeStyle;rounded=0;orthogonalLoop=1;jettySize=auto;html=1;exitX=0.5;exitY=1;exitDx=0;exitDy=0;entryX=0.5;entryY=0;entryDx=0;entryDy=0;fontSize=16;" edge="1" parent="1" source="LCCQY9lC6MaHUOdPVj7X-14" target="LCCQY9lC6MaHUOdPVj7X-21">
          <mxGeometry relative="1" as="geometry" />
        </mxCell>
        <mxCell id="LCCQY9lC6MaHUOdPVj7X-14" value="&lt;span style=&quot;font-size: 16px;&quot;&gt;TOP-200001+用户&lt;/span&gt;" style="whiteSpace=wrap;html=1;rounded=0;" vertex="1" parent="1">
          <mxGeometry x="544" y="539" width="200" height="40" as="geometry" />
        </mxCell>
        <mxCell id="LCCQY9lC6MaHUOdPVj7X-23" style="edgeStyle=orthogonalEdgeStyle;rounded=0;orthogonalLoop=1;jettySize=auto;html=1;exitX=0.5;exitY=1;exitDx=0;exitDy=0;entryX=0.5;entryY=0;entryDx=0;entryDy=0;fontSize=16;" edge="1" parent="1" source="LCCQY9lC6MaHUOdPVj7X-15" target="LCCQY9lC6MaHUOdPVj7X-20">
          <mxGeometry relative="1" as="geometry" />
        </mxCell>
        <mxCell id="LCCQY9lC6MaHUOdPVj7X-15" value="&lt;span style=&quot;font-size: 16px;&quot;&gt;TOP-(50001-200000)用户&lt;/span&gt;" style="whiteSpace=wrap;html=1;rounded=0;" vertex="1" parent="1">
          <mxGeometry x="314" y="539" width="200" height="40" as="geometry" />
        </mxCell>
        <mxCell id="LCCQY9lC6MaHUOdPVj7X-22" style="edgeStyle=orthogonalEdgeStyle;rounded=0;orthogonalLoop=1;jettySize=auto;html=1;exitX=0.5;exitY=1;exitDx=0;exitDy=0;fontSize=16;" edge="1" parent="1" source="LCCQY9lC6MaHUOdPVj7X-16" target="LCCQY9lC6MaHUOdPVj7X-19">
          <mxGeometry relative="1" as="geometry" />
        </mxCell>
        <mxCell id="LCCQY9lC6MaHUOdPVj7X-16" value="&lt;span style=&quot;font-size: 16px;&quot;&gt;TOP-50000用户&lt;/span&gt;" style="whiteSpace=wrap;html=1;rounded=0;" vertex="1" parent="1">
          <mxGeometry x="84" y="539" width="200" height="40" as="geometry" />
        </mxCell>
        <mxCell id="LCCQY9lC6MaHUOdPVj7X-26" style="edgeStyle=orthogonalEdgeStyle;rounded=0;orthogonalLoop=1;jettySize=auto;html=1;exitX=0.5;exitY=1;exitDx=0;exitDy=0;entryX=0;entryY=0.5;entryDx=0;entryDy=0;fontSize=16;" edge="1" parent="1" source="LCCQY9lC6MaHUOdPVj7X-19" target="LCCQY9lC6MaHUOdPVj7X-25">
          <mxGeometry relative="1" as="geometry" />
        </mxCell>
        <mxCell id="LCCQY9lC6MaHUOdPVj7X-19" value="&lt;span style=&quot;font-size: 16px;&quot;&gt;20一层&lt;/span&gt;" style="whiteSpace=wrap;html=1;rounded=0;" vertex="1" parent="1">
          <mxGeometry x="84" y="619" width="200" height="40" as="geometry" />
        </mxCell>
        <mxCell id="LCCQY9lC6MaHUOdPVj7X-27" style="edgeStyle=orthogonalEdgeStyle;rounded=0;orthogonalLoop=1;jettySize=auto;html=1;exitX=0.5;exitY=1;exitDx=0;exitDy=0;fontSize=16;" edge="1" parent="1" source="LCCQY9lC6MaHUOdPVj7X-20" target="LCCQY9lC6MaHUOdPVj7X-25">
          <mxGeometry relative="1" as="geometry" />
        </mxCell>
        <mxCell id="LCCQY9lC6MaHUOdPVj7X-20" value="&lt;span style=&quot;font-size: 16px;&quot;&gt;100一层&lt;/span&gt;" style="whiteSpace=wrap;html=1;rounded=0;" vertex="1" parent="1">
          <mxGeometry x="314" y="619" width="200" height="40" as="geometry" />
        </mxCell>
        <mxCell id="LCCQY9lC6MaHUOdPVj7X-28" style="edgeStyle=orthogonalEdgeStyle;rounded=0;orthogonalLoop=1;jettySize=auto;html=1;exitX=0.5;exitY=1;exitDx=0;exitDy=0;entryX=1;entryY=0.5;entryDx=0;entryDy=0;fontSize=16;" edge="1" parent="1" source="LCCQY9lC6MaHUOdPVj7X-21" target="LCCQY9lC6MaHUOdPVj7X-25">
          <mxGeometry relative="1" as="geometry" />
        </mxCell>
        <mxCell id="LCCQY9lC6MaHUOdPVj7X-21" value="&lt;span style=&quot;font-size: 16px;&quot;&gt;200一层&lt;/span&gt;" style="whiteSpace=wrap;html=1;rounded=0;" vertex="1" parent="1">
          <mxGeometry x="544" y="619" width="200" height="40" as="geometry" />
        </mxCell>
        <mxCell id="LCCQY9lC6MaHUOdPVj7X-25" value="按上述比例对每一层随机采样" style="rounded=0;whiteSpace=wrap;html=1;fontSize=16;" vertex="1" parent="1">
          <mxGeometry x="281" y="703" width="266" height="38" as="geometry" />
        </mxCell>
      </root>
    </mxGraphModel>
  </diagram>
</mxfile>
